<?xml version="1.0" encoding="UTF-8"?>
<svg width="24px" height="24px" viewBox="0 0 24 24" version="1.1" xmlns="http://www.w3.org/2000/svg" xmlns:xlink="http://www.w3.org/1999/xlink">
    <title>a_corriger</title>
    <g id="Page-1" stroke="none" stroke-width="1" fill="none" fill-rule="evenodd">
        <g id="a_corriger">
            <rect id="Rectangle" x="0" y="0" width="24" height="24"></rect>
            <path d="M14,11 C14,11.55 13.55,12 13,12 L4,12 C3.45,12 3,11.55 3,11 C3,10.45 3.45,10 4,10 L13,10 C13.55,10 14,10.45 14,11 Z M3,7 C3,7.55 3.45,8 4,8 L13,8 C13.55,8 14,7.55 14,7 C14,6.45 13.55,6 13,6 L4,6 C3.45,6 3,6.45 3,7 Z M10,15 C10,14.45 9.55,14 9,14 L4,14 C3.45,14 3,14.45 3,15 C3,15.55 3.45,16 4,16 L9,16 C9.55,16 10,15.55 10,15 Z M18.01,12.87 L18.72,12.16 C19.11,11.77 19.74,11.77 20.13,12.16 L20.84,12.87 C21.23,13.26 21.23,13.89 20.84,14.28 L20.13,14.99 L18.01,12.87 Z M17.3,13.58 L12.14,18.74 C12.05,18.83 12,18.95 12,19.09 L12,20.5 C12,20.78 12.22,21 12.5,21 L13.91,21 C14.04,21 14.17,20.95 14.26,20.85 L19.42,15.69 L17.3,13.58 Z" id="Shape" fill="#FFFFFF" fill-rule="nonzero"></path>
        </g>
    </g>
</svg>