<?xml version="1.0" encoding="UTF-8"?>
<svg width="24px" height="24px" viewBox="0 0 24 24" version="1.1" xmlns="http://www.w3.org/2000/svg" xmlns:xlink="http://www.w3.org/1999/xlink">
    <title>aut_definitive</title>
    <g id="Page-1" stroke="none" stroke-width="1" fill="none" fill-rule="evenodd">
        <g id="aut_definitive">
            <g id="Group">
                <rect id="Rectangle" x="0" y="0" width="24" height="24"></rect>
                <rect id="Rectangle" x="0" y="0" width="24" height="24"></rect>
            </g>
            <g id="Group" transform="translate(4.000000, 3.000000)" fill="#FFFFFF" fill-rule="nonzero">
                <path d="M1,4 L15,4 C15.55,4 16,4.45 16,5 L16,5 C16,5.55 15.55,6 15,6 L1,6 C0.45,6 0,5.55 0,5 L0,5 C0,4.45 0.45,4 1,4 Z" id="Path"></path>
                <path d="M1,10 L15,10 C15.55,10 16,9.55 16,9 L16,9 C16,8.45 15.55,8 15,8 L1,8 C0.45,8 0,8.45 0,9 L0,9 C0,9.55 0.45,10 1,10 Z" id="Path"></path>
                <path d="M1,14 L6,14 C6.55,14 7,13.55 7,13 L7,13 C7,12.45 6.55,12 6,12 L1,12 C0.45,12 0,12.45 0,13 L0,13 C0,13.55 0.45,14 1,14 Z" id="Path"></path>
                <path d="M1,18 L6,18 C6.55,18 7,17.55 7,17 L7,17 C7,16.45 6.55,16 6,16 L1,16 C0.45,16 0,16.45 0,17 L0,17 C0,17.55 0.45,18 1,18 Z" id="Path"></path>
                <path d="M11.41,15.17 L10.7,14.46 C10.31,14.07 9.68,14.07 9.29,14.46 L9.29,14.46 C8.9,14.85 8.9,15.48 9.29,15.87 L10.71,17.29 C11.1,17.68 11.73,17.68 12.12,17.29 L15.29,14.12 C15.68,13.73 15.68,13.1 15.29,12.71 L15.29,12.71 C14.9,12.32 14.27,12.32 13.88,12.71 L11.41,15.17 Z" id="Path"></path>
                <path d="M0,1 L0,1 C0,1.55 0.45,2 1,2 L15,2 C15.55,2 16,1.55 16,1 L16,1 C16,0.45 15.55,0 15,0 L1,0 C0.45,0 0,0.45 0,1 Z" id="Path"></path>
            </g>
        </g>
    </g>
</svg>