<?xml version="1.0" encoding="UTF-8"?>
<svg width="24px" height="24px" viewBox="0 0 24 24" version="1.1" xmlns="http://www.w3.org/2000/svg" xmlns:xlink="http://www.w3.org/1999/xlink">
    <title>brouilllon</title>
    <g id="Page-1" stroke="none" stroke-width="1" fill="none" fill-rule="evenodd">
        <g id="brouilllon">
            <rect id="Rectangle" x="0" y="0" width="24" height="24"></rect>
            <g id="Group" transform="translate(3.000000, 3.997500)" fill="#FFFFFF" fill-rule="nonzero">
                <path d="M12,12.0025 L8,16.0025 L16,16.0025 C17.1,16.0025 18,15.1025 18,14.0025 L18,14.0025 C18,12.9025 17.1,12.0025 16,12.0025 L12,12.0025 Z" id="Path"></path>
                <path d="M9.06,3.1925 L0.29,11.9625 C0.11,12.1425 0,12.4025 0,12.6625 L0,15.0025 C0,15.5525 0.45,16.0025 1,16.0025 L3.34,16.0025 C3.61,16.0025 3.86,15.8925 4.05,15.7125 L12.82,6.9425 L9.06,3.1925 Z" id="Path"></path>
                <path d="M15.71,4.0425 C16.1,3.6525 16.1,3.0225 15.71,2.6325 L13.37,0.2925 C12.98,-0.0975 12.35,-0.0975 11.96,0.2925 L10.13,2.1225 L13.88,5.8725 L15.71,4.0425 Z" id="Path"></path>
            </g>
        </g>
    </g>
</svg>