<?xml version="1.0" encoding="UTF-8"?>
<svg width="24px" height="24px" viewBox="0 0 24 24" version="1.1" xmlns="http://www.w3.org/2000/svg" xmlns:xlink="http://www.w3.org/1999/xlink">
    <title>dashboard</title>
    <g id="Page-1" stroke="none" stroke-width="1" fill="none" fill-rule="evenodd">
        <g id="dashboard">
            <rect id="Rectangle" x="0" y="0" width="24" height="24"></rect>
            <path d="M9,21 L5,21 C3.9,21 3,20.1 3,19 L3,5 C3,3.9 3.9,3 5,3 L9,3 C10.1,3 11,3.9 11,5 L11,19 C11,20.1 10.1,21 9,21 Z M15,21 L19,21 C20.1,21 21,20.1 21,19 L21,14 C21,12.9 20.1,12 19,12 L15,12 C13.9,12 13,12.9 13,14 L13,19 C13,20.1 13.9,21 15,21 Z M21,8 L21,5 C21,3.9 20.1,3 19,3 L15,3 C13.9,3 13,3.9 13,5 L13,8 C13,9.1 13.9,10 15,10 L19,10 C20.1,10 21,9.1 21,8 Z" id="Shape" fill="#FFFFFF" fill-rule="nonzero"></path>
        </g>
    </g>
</svg>