<?xml version="1.0" encoding="UTF-8"?>
<svg width="24px" height="24px" viewBox="0 0 24 24" version="1.1" xmlns="http://www.w3.org/2000/svg" xmlns:xlink="http://www.w3.org/1999/xlink">
    <title>demande_rejetees</title>
    <g id="Page-1" stroke="none" stroke-width="1" fill="none" fill-rule="evenodd">
        <g id="demande_rejetees">
            <rect id="Rectangle" x="0" y="0" width="24" height="24"></rect>
            <path d="M3,5 L3,19 C3,20.1 3.9,21 5,21 L19,21 C20.1,21 21,20.1 21,19 L21,5 C21,3.9 20.1,3 19,3 L5,3 C3.9,3 3,3.9 3,5 Z M16.3,16.29 L16.3,16.29 C15.91,16.68 15.28,16.68 14.89,16.29 L12,13.41 L9.11,16.3 C8.72,16.69 8.09,16.69 7.7,16.3 L7.7,16.3 C7.31,15.91 7.31,15.28 7.7,14.89 L10.59,12 L7.7,9.11 C7.31,8.72 7.31,8.09 7.7,7.7 L7.7,7.7 C8.09,7.31 8.72,7.31 9.11,7.7 L12,10.59 L14.89,7.71 C15.28,7.32 15.91,7.32 16.3,7.71 L16.3,7.71 C16.69,8.1 16.69,8.73 16.3,9.12 L13.41,12 L16.3,14.88 C16.68,15.27 16.68,15.91 16.3,16.29 Z" id="Shape" fill="#FFFFFF" fill-rule="nonzero"></path>
        </g>
    </g>
</svg>