<?xml version="1.0" encoding="UTF-8"?>
<svg width="24px" height="24px" viewBox="0 0 24 24" version="1.1" xmlns="http://www.w3.org/2000/svg" xmlns:xlink="http://www.w3.org/1999/xlink">
    <title>demande_a_traiter</title>
    <g id="Page-1" stroke="none" stroke-width="1" fill="none" fill-rule="evenodd">
        <g id="demande_a_traiter">
            <rect id="Rectangle" x="0" y="0" width="24" height="24"></rect>
            <path d="M15,20 L5,20 L5,7 C5,6.45 4.55,6 4,6 L4,6 C3.45,6 3,6.45 3,7 L3,20 C3,21.1 3.9,22 5,22 L15,22 C15.55,22 16,21.55 16,21 L16,21 C16,20.45 15.55,20 15,20 Z M20,16 L20,4 C20,2.9 19.1,2 18,2 L9,2 C7.9,2 7,2.9 7,4 L7,16 C7,17.1 7.9,18 9,18 L18,18 C19.1,18 20,17.1 20,16 Z M18,16 L9,16 L9,4 L18,4 L18,16 Z" id="Shape" fill="#FFFFFF" fill-rule="nonzero"></path>
        </g>
    </g>
</svg>