<?xml version="1.0" encoding="UTF-8"?>
<svg width="24px" height="24px" viewBox="0 0 24 24" version="1.1" xmlns="http://www.w3.org/2000/svg" xmlns:xlink="http://www.w3.org/1999/xlink">
    <title>encours</title>
    <g id="Page-1" stroke="none" stroke-width="1" fill="none" fill-rule="evenodd">
        <g id="encours">
            <g id="Group">
                <rect id="Rectangle" x="0" y="0" width="24" height="24"></rect>
                <rect id="Rectangle" x="0" y="0" width="24" height="24"></rect>
            </g>
            <path d="M12,2 C6.48,2 2,6.48 2,12 C2,17.52 6.48,22 12,22 C17.52,22 22,17.52 22,12 C22,6.48 17.52,2 12,2 Z M7,13.5 C6.17,13.5 5.5,12.83 5.5,12 C5.5,11.17 6.17,10.5 7,10.5 C7.83,10.5 8.5,11.17 8.5,12 C8.5,12.83 7.83,13.5 7,13.5 Z M12,13.5 C11.17,13.5 10.5,12.83 10.5,12 C10.5,11.17 11.17,10.5 12,10.5 C12.83,10.5 13.5,11.17 13.5,12 C13.5,12.83 12.83,13.5 12,13.5 Z M17,13.5 C16.17,13.5 15.5,12.83 15.5,12 C15.5,11.17 16.17,10.5 17,10.5 C17.83,10.5 18.5,11.17 18.5,12 C18.5,12.83 17.83,13.5 17,13.5 Z" id="Shape" fill="#FFFFFF" fill-rule="nonzero"></path>
        </g>
    </g>
</svg>